<?xml version="1.0" encoding="UTF-8" standalone="no"?>
<!-- Created with Inkscape (http://www.inkscape.org/) -->

<svg
   xmlns:dc="http://purl.org/dc/elements/1.1/"
   xmlns:cc="http://creativecommons.org/ns#"
   xmlns:rdf="http://www.w3.org/1999/02/22-rdf-syntax-ns#"
   xmlns:svg="http://www.w3.org/2000/svg"
   xmlns="http://www.w3.org/2000/svg"
   xmlns:inkscape="http://www.inkscape.org/namespaces/inkscape"
   version="1.1"
   width="357.26999"
   height="302.63876"
   id="svg2"
   xml:space="preserve"><metadata
     id="metadata8"><rdf:RDF><cc:Work
         rdf:about=""><dc:format>image/svg+xml</dc:format><dc:type
           rdf:resource="http://purl.org/dc/dcmitype/StillImage" /></cc:Work></rdf:RDF></metadata><defs
     id="defs6"><clipPath
       id="clipPath16"><path
         d="m 0,242.111 285.816,0 L 285.816,0 0,0 0,242.111 z"
         inkscape:connector-curvature="0"
         id="path18" /></clipPath></defs><g
     transform="matrix(1.25,0,0,-1.25,0,302.63875)"
     id="g10"><g
       id="g12"><g
         clip-path="url(#clipPath16)"
         id="g14"><g
           transform="translate(188.1831,104.7554)"
           id="g20"><path
             d="m 0,0 c -11.411,0 -21.352,6.23 -26.64,15.469 l -0.004,-0.012 -14.655,26.08 12.611,0 C -24.309,53.116 -13.12,61.351 0,61.351 16.938,61.351 30.672,47.613 30.672,30.674 30.672,13.729 16.938,0 0,0 M -65.826,19.808 C -70.215,8.235 -81.398,0 -94.516,0 c -16.943,0 -30.671,13.729 -30.671,30.674 0,16.939 13.728,30.677 30.671,30.677 11.407,0 21.35,-6.228 26.637,-15.471 l 0.006,0.009 14.654,-26.081 -12.607,0 z m 128.466,29.406 -14.235,0 C 40.944,68.679 22.093,82.505 0,82.505 c -21.035,0 -39.135,-12.541 -47.259,-30.548 -8.123,18.007 -26.216,30.548 -47.257,30.548 -22.088,0 -40.942,-13.827 -48.405,-33.291 l -11.27,0 0,-33.869 10.147,0 c 6.539,-21.143 26.242,-36.496 49.528,-36.496 21.041,0 39.134,12.531 47.257,30.535 8.124,-18.004 26.224,-30.535 47.259,-30.535 23.29,0 42.99,15.353 49.527,36.496 l 13.113,0 0,33.869 z"
             inkscape:connector-curvature="0"
             id="path22"
             style="fill:#2c3792;fill-opacity:1;fill-rule:nonzero;stroke:none" /></g><g
           transform="translate(93.3213,116.8921)"
           id="g24"><path
             d="M 0,0 C 10.24,0 18.538,8.3 18.538,18.538 18.538,28.779 10.24,37.077 0,37.077 -10.235,37.077 -18.542,28.779 -18.542,18.538 -18.542,8.3 -10.235,0 0,0 m 95.21,-0.004 c 10.241,0 18.538,8.302 18.538,18.542 0,10.234 -8.297,18.539 -18.538,18.539 -10.238,0 -18.545,-8.305 -18.545,-18.539 0,-10.24 8.307,-18.542 18.545,-18.542 M 47.603,-8.936 C 41.767,-18.958 32.942,-26.746 22.586,-31.372 l 26.499,-26.491 25.623,25.614 c -11.256,4.479 -20.88,12.625 -27.105,23.313 m -4.962,127.71 c 0,3.56 2.886,6.445 6.444,6.445 3.56,0 6.446,-2.885 6.446,-6.445 0,-2.543 -1.476,-4.735 -3.615,-5.783 l 0,-26.795 18.692,-18.692 C 61.123,62.796 53.059,55.374 47.603,46.004 42.525,54.726 35.185,61.756 26.544,66.484 l 19.712,19.713 0,26.793 c -2.139,1.049 -3.615,3.241 -3.615,5.784"
             inkscape:connector-curvature="0"
             id="path26"
             style="fill:#40b93c;fill-opacity:1;fill-rule:nonzero;stroke:none" /></g><g
           transform="translate(19.8101,10.6035)"
           id="g28"><path
             d="m 0,0 c -0.628,-0.735 -1.307,-1.349 -2.039,-1.844 -0.732,-0.496 -1.492,-0.892 -2.278,-1.191 -0.786,-0.298 -1.599,-0.507 -2.439,-0.629 -0.842,-0.123 -1.674,-0.184 -2.497,-0.184 -1.45,0 -2.817,0.271 -4.099,0.813 -1.283,0.542 -2.401,1.333 -3.355,2.371 -0.955,1.038 -1.71,2.31 -2.268,3.812 -0.557,1.504 -0.835,3.218 -0.835,5.142 0,1.726 0.248,3.324 0.744,4.799 0.496,1.472 1.225,2.747 2.187,3.822 0.962,1.077 2.153,1.922 3.573,2.531 1.42,0.612 3.054,0.917 4.9,0.917 1.903,0 4.369,-0.565 7.4,-1.695 l -0.002,-7.227 -0.196,0 -0.556,0 -1.884,0 c -0.59,0 -0.946,0.284 -1.068,0.852 -0.068,0.387 -0.191,1.492 -0.369,3.316 -1.192,0.3 -2.186,0.449 -2.981,0.449 -0.992,0 -1.862,-0.18 -2.611,-0.539 -0.748,-0.358 -1.37,-0.874 -1.866,-1.546 -0.496,-0.672 -0.867,-1.484 -1.111,-2.439 -0.245,-0.954 -0.366,-2.034 -0.366,-3.24 0,-1.252 0.133,-2.366 0.4,-3.345 0.267,-0.975 0.652,-1.796 1.157,-2.46 0.503,-0.665 1.114,-1.169 1.832,-1.512 0.717,-0.344 1.526,-0.515 2.428,-0.515 0.9,0 1.629,0.11 2.187,0.332 0.556,0.221 1.026,0.465 1.408,0.733 0.379,0.265 0.711,0.51 0.996,0.733 0.282,0.221 0.6,0.332 0.951,0.332 0.458,0 0.801,-0.176 1.03,-0.527 L 0,0 z"
             inkscape:connector-curvature="0"
             id="path30"
             style="fill:#40b93c;fill-opacity:1;fill-rule:nonzero;stroke:none" /></g><g
           transform="translate(37.0493,13.0771)"
           id="g32"><path
             d="m 0,0 c 0.939,1.312 1.408,3.236 1.408,5.771 0,2.534 -0.469,4.465 -1.408,5.793 -0.939,1.329 -2.386,1.994 -4.339,1.994 -1.985,0 -3.451,-0.669 -4.398,-2.005 -0.947,-1.335 -1.42,-3.263 -1.42,-5.782 0,-2.52 0.473,-4.44 1.42,-5.759 0.947,-1.323 2.413,-1.983 4.398,-1.983 1.953,0 3.4,0.658 4.339,1.971 M 0.436,17.037 C 1.863,16.473 3.081,15.672 4.088,14.634 5.096,13.595 5.875,12.329 6.424,10.832 6.974,9.336 7.248,7.664 7.248,5.816 7.248,3.953 6.974,2.273 6.424,0.778 5.875,-0.719 5.096,-1.993 4.088,-3.047 3.081,-4.101 1.863,-4.91 0.436,-5.475 c -1.429,-0.564 -3.02,-0.846 -4.775,-0.846 -1.757,0 -3.352,0.282 -4.787,0.846 -1.436,0.565 -2.66,1.374 -3.676,2.428 -1.015,1.054 -1.802,2.328 -2.359,3.825 -0.557,1.495 -0.836,3.175 -0.836,5.038 0,1.848 0.279,3.52 0.836,5.016 0.557,1.497 1.344,2.763 2.359,3.802 1.016,1.038 2.24,1.839 3.676,2.403 1.435,0.566 3.03,0.849 4.787,0.849 1.755,0 3.346,-0.283 4.775,-0.849"
             inkscape:connector-curvature="0"
             id="path34"
             style="fill:#40b93c;fill-opacity:1;fill-rule:nonzero;stroke:none" /></g><g
           transform="translate(62.3755,24.5967)"
           id="g36"><path
             d="M 0,0 C -0.641,0.794 -1.34,1.348 -2.096,1.66 -2.852,1.974 -3.665,2.13 -4.535,2.13 -5.39,2.13 -6.164,1.969 -6.859,1.648 -7.554,1.327 -8.142,0.84 -8.623,0.183 c -0.481,-0.656 -0.851,-1.484 -1.11,-2.485 -0.26,-1.001 -0.39,-2.178 -0.39,-3.538 0,-1.373 0.111,-2.538 0.332,-3.493 0.222,-0.955 0.539,-1.73 0.951,-2.323 0.412,-0.596 0.911,-1.031 1.5,-1.305 0.588,-0.276 1.256,-0.414 2.004,-0.414 1.175,0 2.178,0.248 3.011,0.744 0.832,0.496 1.606,1.194 2.325,2.096 L 0,0 z m 8.85,-17.405 -3.194,0 -3.458,0 c -0.366,0 -0.679,0.085 -0.939,0.252 -0.259,0.168 -0.427,0.427 -0.504,0.779 l -0.458,2.176 c -0.946,-1.084 -2.034,-1.962 -3.263,-2.634 -1.229,-0.673 -2.668,-1.008 -4.317,-1.008 -1.282,0 -2.454,0.266 -3.516,0.802 -1.061,0.534 -1.976,1.309 -2.748,2.323 -0.771,1.016 -1.366,2.268 -1.786,3.756 -0.42,1.49 -0.63,3.196 -0.63,5.119 0,1.756 0.236,3.382 0.71,4.878 0.473,1.496 1.149,2.793 2.027,3.894 0.877,1.098 1.938,1.957 3.183,2.577 1.245,0.617 2.638,0.926 4.18,0.926 1.328,0 2.453,-0.203 3.378,-0.606 C -1.562,5.423 -0.733,4.862 0,4.145 l 0,7.85 c -0.573,0.101 -1.024,0.181 -1.354,0.239 -0.329,0.059 -0.556,0.101 -0.681,0.123 -0.125,0.024 -0.221,0.04 -0.287,0.052 -0.765,0.164 -1.147,0.642 -1.147,1.433 l 0,2.692 3.469,0 5.656,0 0,-29.447 c 0.489,-0.087 0.879,-0.156 1.169,-0.208 0.29,-0.052 0.492,-0.089 0.605,-0.109 0.111,-0.021 0.203,-0.037 0.274,-0.049 0.765,-0.165 1.147,-0.642 1.147,-1.434 L 8.85,-17.405 z"
             inkscape:connector-curvature="0"
             id="path38"
             style="fill:#40b93c;fill-opacity:1;fill-rule:nonzero;stroke:none" /></g><g
           transform="translate(80.2002,25.5127)"
           id="g40"><path
             d="m 0,0 c -0.931,-0.932 -1.526,-2.253 -1.786,-3.962 l 10.626,0 c 0,0.733 -0.099,1.423 -0.297,2.072 C 8.344,-1.241 8.039,-0.672 7.627,-0.184 7.214,0.305 6.695,0.69 6.069,0.973 5.443,1.256 4.71,1.396 3.871,1.396 2.222,1.396 0.932,0.931 0,0 m 7.844,4.74 c 1.244,-0.473 2.317,-1.165 3.218,-2.072 0.9,-0.908 1.603,-2.023 2.106,-3.344 0.505,-1.321 0.756,-2.83 0.756,-4.523 0,-0.428 -0.018,-0.782 -0.056,-1.066 -0.039,-0.282 -0.107,-0.504 -0.206,-0.663 -0.1,-0.161 -0.234,-0.275 -0.402,-0.343 -0.168,-0.07 -0.382,-0.104 -0.641,-0.104 l -14.519,0 c 0.168,-2.412 0.817,-4.184 1.946,-5.314 1.13,-1.129 2.626,-1.694 4.489,-1.694 0.916,0 1.706,0.108 2.371,0.32 0.663,0.213 1.243,0.451 1.74,0.71 0.496,0.26 0.931,0.497 1.305,0.709 0.374,0.214 0.737,0.322 1.088,0.322 0.229,0 0.427,-0.045 0.596,-0.137 0.167,-0.092 0.313,-0.222 0.434,-0.39 l 1.649,-2.061 c -0.626,-0.734 -1.328,-1.347 -2.106,-1.843 -0.779,-0.496 -1.592,-0.893 -2.44,-1.191 -0.847,-0.298 -1.709,-0.507 -2.588,-0.63 -0.877,-0.122 -1.729,-0.183 -2.553,-0.183 -1.634,0 -3.153,0.271 -4.558,0.813 -1.404,0.542 -2.625,1.343 -3.664,2.404 -1.038,1.061 -1.855,2.374 -2.451,3.938 -0.595,1.567 -0.893,3.379 -0.893,5.441 0,1.603 0.26,3.11 0.779,4.522 0.519,1.413 1.263,2.642 2.233,3.688 0.97,1.047 2.152,1.875 3.55,2.484 C 0.424,5.145 2,5.45 3.756,5.45 5.237,5.45 6.6,5.213 7.844,4.74"
             inkscape:connector-curvature="0"
             id="path42"
             style="fill:#40b93c;fill-opacity:1;fill-rule:nonzero;stroke:none" /></g><g
           transform="translate(273.9585,8.4609)"
           id="g44"><path
             d="m 0,0 c -1.1,1.154 -1.648,2.745 -1.648,4.775 l 0,13.123 -2.382,0 c -0.305,0.001 -0.569,0.099 -0.79,0.298 -0.221,0.198 -0.332,0.497 -0.332,0.893 l 0,2.244 3.779,0.619 1.19,6.413 c 0.061,0.305 0.204,0.541 0.424,0.709 0.22,0.168 0.5,0.253 0.835,0.252 l 2.932,0 0,-7.397 6.184,0 0,-4.031 -6.184,0 0,-12.733 c 0,-0.733 0.183,-1.306 0.55,-1.718 0.367,-0.413 0.855,-0.618 1.465,-0.618 0.352,0 0.646,0.042 0.883,0.125 0.237,0.085 0.442,0.172 0.618,0.266 0.175,0.09 0.332,0.177 0.47,0.262 0.137,0.083 0.275,0.125 0.41,0.125 0.17,0 0.307,-0.042 0.412,-0.125 C 8.924,3.397 9.039,3.271 9.161,3.104 l 1.695,-2.75 C 10.031,-0.331 9.085,-0.851 8.017,-1.201 6.947,-1.553 5.84,-1.729 4.695,-1.729 2.665,-1.729 1.1,-1.151 0,0 m -9.451,27.608 c -0.198,-0.426 -0.462,-0.801 -0.79,-1.122 -0.329,-0.32 -0.714,-0.577 -1.157,-0.766 -0.443,-0.191 -0.916,-0.287 -1.419,-0.287 -0.489,0 -0.952,0.096 -1.386,0.287 -0.436,0.189 -0.814,0.446 -1.134,0.766 -0.321,0.321 -0.577,0.696 -0.767,1.122 -0.192,0.428 -0.287,0.886 -0.287,1.374 0,0.504 0.095,0.978 0.287,1.42 0.19,0.444 0.446,0.826 0.767,1.146 0.32,0.321 0.698,0.577 1.134,0.767 0.434,0.192 0.897,0.288 1.386,0.287 0.503,0 0.976,-0.097 1.419,-0.287 0.443,-0.19 0.828,-0.447 1.157,-0.767 0.328,-0.32 0.592,-0.702 0.79,-1.146 0.199,-0.442 0.297,-0.916 0.297,-1.42 0,-0.488 -0.098,-0.946 -0.297,-1.374 m 2.919,-26.278 0,-2.692 -3.468,0 -5.658,0 -3.469,0 0,2.692 c 0,0.792 0.381,1.27 1.147,1.433 0.067,0.013 0.162,0.03 0.287,0.052 0.124,0.024 0.351,0.064 0.681,0.123 0.33,0.059 0.783,0.139 1.354,0.241 l 0,14.416 c -0.571,0.101 -1.024,0.181 -1.354,0.241 -0.33,0.059 -0.557,0.1 -0.681,0.123 -0.125,0.022 -0.22,0.039 -0.287,0.051 -0.766,0.164 -1.147,0.641 -1.147,1.433 l 0,2.693 3.469,0 5.658,0 0,-18.957 C -9.43,3.077 -8.979,2.997 -8.647,2.938 -8.316,2.879 -8.089,2.839 -7.965,2.815 -7.841,2.793 -7.744,2.776 -7.679,2.763 -6.914,2.6 -6.532,2.122 -6.532,1.33 m -14.276,0 0,-2.691 -3.469,0 -3.457,0 c -0.734,0 -1.215,0.343 -1.444,1.031 l -0.389,1.877 c -0.49,-0.489 -0.993,-0.936 -1.512,-1.34 -0.52,-0.404 -1.072,-0.748 -1.659,-1.03 -0.589,-0.282 -1.223,-0.504 -1.901,-0.664 -0.68,-0.159 -1.409,-0.241 -2.187,-0.241 -1.283,0 -2.416,0.217 -3.403,0.653 -0.984,0.435 -1.811,1.049 -2.484,1.844 -0.672,0.793 -1.178,1.737 -1.523,2.828 -0.343,1.091 -0.514,2.294 -0.514,3.607 l 0,10.391 c -1.952,0.344 -1.972,0.352 -2.324,0.415 -0.764,0.164 -1.147,0.641 -1.147,1.433 l 0,2.692 3.471,0 0,10e-4 5.655,0 0,-14.932 c 0,-1.436 0.332,-2.546 0.996,-3.333 0.665,-0.785 1.661,-1.179 2.99,-1.179 0.977,0 1.892,0.217 2.748,0.654 0.855,0.433 1.664,1.033 2.427,1.797 l 0,12.453 c -1.944,0.343 -1.964,0.352 -2.316,0.414 -0.765,0.164 -1.146,0.641 -1.146,1.433 l 0,2.693 3.462,0 0.005,0 5.652,0 0,-18.957 c 1.951,-0.345 1.972,-0.354 2.324,-0.416 0.763,-0.163 1.145,-0.641 1.145,-1.433 m -28.563,0.813 c -0.627,-0.736 -1.308,-1.349 -2.04,-1.844 -0.731,-0.496 -1.49,-0.893 -2.277,-1.192 -0.788,-0.297 -1.6,-0.506 -2.44,-0.628 -0.841,-0.124 -1.674,-0.184 -2.496,-0.184 -1.451,0 -2.816,0.27 -4.1,0.812 -1.283,0.542 -2.401,1.333 -3.355,2.372 -0.954,1.038 -1.709,2.309 -2.266,3.812 -0.559,1.504 -0.837,3.218 -0.837,5.142 0,1.725 0.248,3.324 0.744,4.798 0.497,1.472 1.225,2.748 2.188,3.823 0.961,1.077 2.152,1.922 3.572,2.531 1.421,0.611 3.055,0.917 4.901,0.917 1.903,0 4.369,-0.565 7.399,-1.695 l -0.002,-7.228 -0.195,0 -0.556,0 -1.885,0 c -0.589,0 -0.945,0.284 -1.067,0.853 -0.068,0.386 -0.191,1.492 -0.369,3.316 -1.193,0.3 -2.186,0.448 -2.981,0.448 -0.993,0 -1.862,-0.179 -2.611,-0.539 -0.749,-0.357 -1.37,-0.874 -1.867,-1.546 -0.495,-0.672 -0.865,-1.483 -1.11,-2.438 -0.245,-0.954 -0.367,-2.034 -0.367,-3.24 0,-1.252 0.133,-2.367 0.402,-3.345 0.265,-0.976 0.65,-1.796 1.155,-2.46 0.504,-0.665 1.115,-1.169 1.833,-1.513 0.717,-0.344 1.526,-0.514 2.428,-0.514 0.9,0 1.629,0.11 2.186,0.332 0.557,0.22 1.027,0.464 1.408,0.733 0.38,0.265 0.711,0.51 0.997,0.732 0.282,0.221 0.599,0.332 0.951,0.332 0.457,0 0.8,-0.175 1.03,-0.527 l 1.627,-2.06 z m -21.133,19.625 -0.732,-4.237 c -0.046,-0.274 -0.147,-0.469 -0.298,-0.583 -0.154,-0.115 -0.36,-0.172 -0.619,-0.172 -0.229,0 -0.543,0.053 -0.94,0.161 -0.397,0.106 -0.923,0.159 -1.58,0.159 -1.175,0 -2.182,-0.325 -3.021,-0.973 -0.841,-0.649 -1.552,-1.601 -2.131,-2.851 l 0,-10.094 c 1.95,-0.344 1.971,-0.353 2.322,-0.415 0.765,-0.164 1.147,-0.641 1.147,-1.433 l 0,-2.692 -3.469,0 -0.002,0 -5.654,0 -3.47,0 0,2.692 c -0.001,0.792 0.382,1.269 1.145,1.433 0.353,0.062 0.373,0.071 2.325,0.415 l 0,14.417 c -1.952,0.342 -1.972,0.352 -2.325,0.414 -0.763,0.165 -1.146,0.641 -1.145,1.433 l 0,2.693 3.47,0 3.321,0 c 0.58,0 0.983,-0.108 1.214,-0.322 0.228,-0.212 0.381,-0.58 0.457,-1.098 l 0.343,-2.84 c 0.839,1.45 1.825,2.596 2.955,3.436 1.129,0.838 2.396,1.258 3.801,1.258 1.16,0 2.122,-0.265 2.886,-0.801 m -23.065,5.84 c -0.2,-0.426 -0.462,-0.801 -0.79,-1.122 -0.329,-0.32 -0.714,-0.577 -1.158,-0.766 -0.442,-0.191 -0.916,-0.287 -1.42,-0.287 -0.488,0 -0.95,0.096 -1.384,0.287 -0.436,0.189 -0.815,0.446 -1.134,0.766 -0.32,0.321 -0.577,0.696 -0.768,1.122 -0.19,0.428 -0.286,0.886 -0.286,1.374 0,0.504 0.096,0.978 0.286,1.42 0.191,0.444 0.448,0.826 0.768,1.146 0.319,0.321 0.698,0.577 1.134,0.767 0.434,0.192 0.896,0.288 1.384,0.287 0.504,0 0.978,-0.097 1.42,-0.287 0.444,-0.19 0.829,-0.447 1.158,-0.767 0.328,-0.32 0.59,-0.702 0.79,-1.146 0.198,-0.442 0.298,-0.916 0.298,-1.42 0,-0.488 -0.1,-0.946 -0.298,-1.374 m 2.92,-26.278 0,-2.692 -3.47,0 -5.656,0 -3.47,0 0,2.692 c 0,0.792 0.382,1.27 1.146,1.433 0.067,0.013 0.162,0.03 0.288,0.052 0.124,0.024 0.352,0.064 0.682,0.123 0.33,0.059 0.781,0.139 1.354,0.241 l 0,14.416 c -0.573,0.101 -1.024,0.181 -1.354,0.241 -0.33,0.059 -0.558,0.1 -0.682,0.123 -0.126,0.022 -0.221,0.039 -0.288,0.051 -0.764,0.164 -1.146,0.641 -1.146,1.433 l 0,2.693 3.47,0 5.656,0 0,-18.957 c 0.572,-0.102 1.022,-0.182 1.353,-0.241 0.331,-0.059 0.559,-0.099 0.683,-0.123 0.123,-0.022 0.221,-0.039 0.287,-0.052 0.764,-0.163 1.147,-0.641 1.147,-1.433 m -13.976,0.813 c -0.627,-0.736 -1.308,-1.349 -2.04,-1.844 -0.731,-0.496 -1.49,-0.893 -2.276,-1.192 -0.788,-0.297 -1.601,-0.506 -2.441,-0.628 -0.841,-0.124 -1.674,-0.184 -2.496,-0.184 -1.451,0 -2.816,0.27 -4.1,0.812 -1.282,0.542 -2.401,1.333 -3.354,2.372 -0.955,1.038 -1.71,2.309 -2.268,3.812 -0.557,1.504 -0.836,3.218 -0.836,5.142 0,1.725 0.248,3.324 0.745,4.798 0.496,1.472 1.224,2.748 2.187,3.823 0.963,1.077 2.152,1.922 3.572,2.531 1.421,0.611 3.055,0.917 4.901,0.917 1.903,0 4.369,-0.565 7.399,-1.695 l -0.002,-7.228 -0.195,0 -0.556,0 -1.885,0 c -0.589,0 -0.946,0.284 -1.067,0.853 -0.068,0.386 -0.191,1.492 -0.369,3.316 -1.192,0.3 -2.186,0.448 -2.981,0.448 -0.993,0 -1.862,-0.179 -2.611,-0.539 -0.749,-0.357 -1.37,-0.874 -1.867,-1.546 -0.495,-0.672 -0.865,-1.483 -1.11,-2.438 -0.245,-0.954 -0.367,-2.034 -0.367,-3.24 0,-1.252 0.133,-2.367 0.401,-3.345 0.266,-0.976 0.653,-1.796 1.156,-2.46 0.504,-0.665 1.114,-1.169 1.833,-1.513 0.717,-0.344 1.526,-0.514 2.428,-0.514 0.9,0 1.629,0.11 2.186,0.332 0.557,0.22 1.027,0.464 1.409,0.733 0.379,0.265 0.71,0.51 0.996,0.732 0.282,0.221 0.599,0.332 0.951,0.332 0.457,0 0.801,-0.175 1.029,-0.527 l 1.628,-2.06 z"
             inkscape:connector-curvature="0"
             id="path46"
             style="fill:#2c3792;fill-opacity:1;fill-rule:nonzero;stroke:none" /></g><g
           transform="translate(146.2222,33.834)"
           id="g48"><path
             d="m 0,0 c -0.082,-0.251 -0.183,-0.499 -0.247,-0.754 -0.98,-3.898 -3.748,-5.844 -7.434,-6.699 -1.519,-0.354 -3.091,-0.478 -4.399,-0.668 0.957,-0.932 2.175,-1.866 3.073,-3.042 1.981,-2.597 1.983,-5.619 1.384,-8.655 -1.35,-6.854 -5.774,-10.735 -12.354,-12.281 -4.905,-1.153 -9.813,-1.051 -14.502,1.048 -4.93,2.208 -8.17,5.837 -9.095,11.301 -1.056,6.239 2.049,12.473 7.057,14.646 0.051,0.021 0.082,0.084 -0.02,-0.026 -0.208,1.912 -0.549,3.684 -0.567,5.458 -0.05,4.955 4.402,9.323 9.352,9.358 2.44,0.016 4.757,-0.355 6.657,-2.016 2.086,-1.824 2.433,-4.241 1.928,-6.779 -0.438,-2.206 -1.725,-3.845 -4.015,-4.407 -3.521,-0.86 -6.417,1.982 -5.582,5.105 0.334,-0.382 0.613,-0.768 0.956,-1.081 1.326,-1.213 3.353,-1.374 4.822,-0.415 1.369,0.896 1.891,2.712 1.312,4.569 -0.684,2.197 -2.944,3.72 -5.607,3.779 -3.917,0.087 -7.43,-2.811 -8.252,-6.81 -0.448,-2.181 -0.193,-4.295 0.676,-5.994 1.457,-0.092 2.864,-0.05 4.216,-0.3 1.556,-0.289 2.261,-1.243 2.249,-2.56 -0.01,-0.991 -0.499,-1.61 -1.525,-1.879 -2.077,-0.544 -3.69,0.211 -5.006,1.803 -0.918,1.11 -0.921,1.096 -2.139,0.256 -1.845,-1.271 -2.559,-3.155 -2.674,-5.263 -0.372,-6.765 2.969,-11.572 8.622,-14.622 6.143,-3.314 12.499,-3.313 18.385,0.834 5.979,4.214 4.964,12.219 1.775,15.615 -2.364,2.52 -6.706,2.981 -9.858,1.051 -2.647,-1.622 -3.883,-5.227 -2.832,-8.264 0.904,-2.62 3.686,-4.245 6.387,-3.735 2.734,0.516 4.138,4.141 2.47,6.381 -0.919,1.233 -2.866,1.481 -3.849,0.442 0.167,-0.088 0.313,-0.188 0.475,-0.244 1.195,-0.407 1.541,-0.884 1.483,-2.068 -0.042,-0.836 -0.697,-1.534 -1.615,-1.726 -1.073,-0.222 -1.927,0.146 -2.405,1.036 -0.599,1.118 -0.371,2.618 0.587,3.639 1.132,1.203 2.526,1.537 4.093,1.105 1.62,-0.445 2.59,-1.558 2.972,-3.161 0.886,-3.715 -1.579,-6.715 -5.392,-6.864 -3.561,-0.138 -6.239,2.54 -6.951,6.033 -1.388,6.81 3.42,13.271 10.388,13.369 2.465,0.034 4.929,0.222 7.393,0.353 3.323,0.176 5.853,3.416 5.379,6.876 -0.392,2.857 -2.233,4.762 -4.775,4.944 -2.283,0.165 -4.032,-1.376 -4.035,-3.386 0.774,0.06 1.578,0.26 2.337,0.148 1.032,-0.15 1.577,-0.947 1.589,-1.934 0.016,-1.222 -0.503,-1.999 -1.542,-2.31 -1.836,-0.549 -3.568,0.499 -3.935,2.381 -0.601,3.081 1.722,5.989 4.868,6.093 C -3.75,9.808 -1.217,7.905 -0.204,4.039 -0.169,3.905 -0.068,3.787 0,3.662 L 0,0 z"
             inkscape:connector-curvature="0"
             id="path50"
             style="fill:#393536;fill-opacity:1;fill-rule:evenodd;stroke:none" /></g></g></g></g></svg>